                    ETC1337 Presents "Sin Of Innocence" TV Movie

                                    .MKV 1986


Sin Of Innocence 1986 ETC1337.m4v
Format                           : MPEG-4
Format profile                   : Base Media / Version 2
Codec ID                         : mp42
File size                        : 1.03 GiB
Duration                         : 1h 43mn
Overall bit rate                 : 1 431 Kbps
Encoded date                     : UTC 2011-08-21 07:29:22
Tagged date                      : UTC 2011-08-21 08:49:01
Writing application              : HandBrake 0.9.5 2011010300

Video
ID                               : 1
Format                           : AVC
Format/Info                      : Advanced Video Codec
Format profile                   : Main@L3.0
Format settings, CABAC           : Yes
Format settings, ReFrames        : 4 frames
Codec ID                         : avc1
Codec ID/Info                    : Advanced Video Coding
Duration                         : 1h 43mn
Bit rate mode                    : Variable
Bit rate                         : 1 266 Kbps
Width                            : 710 pixels
Height                           : 476 pixels
Display aspect ratio             : 4:3
Frame rate mode                  : Variable
Frame rate                       : 29.970 fps
Minimum frame rate               : 9.990 fps
Maximum frame rate               : 29.970 fps
Color space                      : YUV
Chroma subsampling               : 4:2:0
Bit depth                        : 8 bits
Scan type                        : Progressive
Bits/(Pixel*Frame)               : 0.125
Stream size                      : 933 MiB (88%)
Writing library                  : x264 core 112
Tagged date                      : UTC 2011-08-21 08:49:01
Color primaries                  : BT.601-6 525, BT.1358 525, BT.1700 NTSC, SMPTE 170M
Transfer characteristics         : BT.709-5, BT.1361
Matrix coefficients              : BT.601-6 525, BT.1358 525, BT.1700 NTSC, SMPTE 170M

Audio
ID                               : 2
Format                           : AAC
Format/Info                      : Advanced Audio Codec
Format profile                   : LC
Codec ID                         : 40
Duration                         : 1h 43mn
Bit rate mode                    : Variable
Bit rate                         : 160 Kbps
Maximum bit rate                 : 210 Kbps
Channel(s)                       : 2 channels
Channel positions                : Front: L R
Sampling rate                    : 48.0 KHz
Compression mode                 : Lossy
Stream size                      : 118 MiB (11%)
Encoded date                     : UTC 2011-08-21 07:29:22
Tagged date                      : UTC 2011-08-21 08:49:00



****SORRY FOR THE DAMN FILE FORMAT...DVDFAB WAS BEING A BITCH EVEN AFTER TRYING ABOUT 5 TIMES I FINALLY RIPPED IT WITH HANDBRAKE AND UNFORTUNALEY THEY ONLY GAVE ME 2 FILE FORMAT OPTIONS...THEN AFTER A CONVERT TO .AVI THE QUALITY GOT PRETTY SHITTY SO I STUCK WITH THIS FOR NOW****

Anyhow Enjoy...





[SCREENS]
                              [SCREENS]







Have A Request? Ask me here:                  
http://forum.suprbay.org/member.php?action=register&referrer=118982



Please, SEED, COMMENT, And ENJOY

ETC1337	
